<svg width="30" height="25" viewBox="0 0 30 25" fill="none" xmlns="http://www.w3.org/2000/svg">
<path fill-rule="evenodd" clip-rule="evenodd" d="M29.5824 2.6212C29.6586 2.64952 29.7289 2.69249 29.7855 2.74815C29.893 2.85557 29.9496 3.01475 29.9574 3.17003C29.9594 3.23448 29.9535 3.29893 29.9379 3.3585C29.7523 3.95811 29.4906 4.49132 29.1703 4.94932C28.7015 5.61729 28.1098 6.12803 27.4476 6.46007V6.61241C27.4476 16.4259 20.1254 24.4093 11.1762 24.4093C6.141 24.4093 2.07459 23.544 0.244516 22.0704C0.107797 21.9337 0.0160002 21.7735 0.00232835 21.5909C-0.00548415 21.5021 0.0062346 21.4073 0.0394377 21.3067C0.141 21.0528 0.39686 20.8497 0.701547 20.8497C3.70155 20.7989 5.63319 20.087 7.1078 19.2228C4.26014 18.8663 2.48084 17.4933 1.56483 14.9005C1.46327 14.6466 1.56483 14.3917 1.76991 14.2394C1.97303 14.087 2.27772 14.087 2.48084 14.1886C3.24452 14.6974 4.00623 14.7989 4.92225 14.7989C2.98866 13.629 1.20936 11.6974 0.498422 9.30675C0.467172 9.14757 0.494516 8.96885 0.570688 8.83214C0.61561 8.75108 0.676156 8.68467 0.752328 8.64659C1.00623 8.49327 1.26014 8.54503 1.46327 8.69737C1.79334 8.9669 2.141 9.1837 2.55897 9.34776C2.84998 9.46202 3.1742 9.54991 3.5492 9.61241C1.56483 7.57823 0.346078 4.57823 2.07459 1.27354L2.37928 0.66319L2.88709 1.17198C6.03944 4.47667 8.93788 6.00206 14.2269 7.01866V6.81553C14.2269 3.10362 17.1254 0.0528388 20.7348 0.00205757C22.1586 0.00205757 24.141 1.01866 24.9555 1.47667C24.975 1.47667 24.9945 1.48448 25.0101 1.49034C25.0375 1.50108 25.057 1.50792 25.057 1.47667C26.0746 1.17198 27.2953 0.66319 28.7172 0.0528388C28.9223 -0.0487237 29.1762 0.00205757 29.3285 0.154401C29.4808 0.307722 29.5316 0.510847 29.4301 0.764753C29.2914 1.15245 29.1078 1.55479 28.8715 1.95616C28.6742 2.2921 28.4379 2.62706 28.1586 2.95128L29.1762 2.59581C29.3051 2.56358 29.4535 2.57139 29.5824 2.6212ZM26.4301 5.7462L26.7367 5.64464C27.7015 5.28819 28.2621 4.5255 28.6176 3.86534L26.6351 4.52647C26.3793 4.62803 26.0746 4.52647 25.973 4.27159C25.9125 4.12217 25.9047 3.95421 25.9515 3.81065C25.9828 3.71007 26.0414 3.62217 26.1254 3.55967C26.9398 2.89854 27.5492 2.18663 28.0062 1.42393C26.9906 1.83116 26.0746 2.18663 25.3129 2.44151C25.1742 2.48741 25.0355 2.50206 24.8969 2.49034C24.7308 2.47569 24.5629 2.42296 24.3969 2.33995L24.3734 2.32823C23.7875 2.00694 21.889 0.967878 20.7367 1.01768C17.6859 1.06846 15.2445 3.66124 15.2445 6.81456V8.23741L14.6351 8.13585C9.04139 7.11925 5.93983 5.64464 2.68592 2.44151C1.16053 6.30577 4.31288 9.0001 5.37928 9.7628L6.65077 10.6788H5.07459C4.58827 10.6788 4.07655 10.6554 3.56483 10.5802C3.00819 10.4991 2.45155 10.3575 1.92225 10.1192C3.04139 12.4581 5.3285 14.1866 7.26209 14.7462L7.10975 15.7628C6.70155 15.7628 6.2953 15.7628 5.88905 15.8146C4.82069 15.8653 3.85389 15.8653 2.93983 15.5597C3.95545 17.4923 5.7367 18.3058 8.63514 18.3058H10.1605L8.88905 19.2208C7.31288 20.4415 5.27772 21.5597 1.76991 21.8146C3.44764 22.628 6.5492 23.3907 11.1762 23.3907C19.5668 23.3907 26.4301 15.8653 26.4301 6.61046V5.7462Z" transform="translate(0 0.000976562)" fill="#92A4B5"/>
</svg>
